<svg xmlns="http://www.w3.org/2000/svg" viewBox="19.66 32.6 167.2 129.05">
  <path fill="#FFFFFF" d="M38.5,-66.3C46.4,-62.1,46.9,-44.7,55.8,-31.5C64.6,-18.3,81.7,-9.1,85.8,2.4C90,13.9,81.1,27.8,69.5,36.3C58,44.8,43.7,47.8,31.6,49.7C19.6,51.7,9.8,52.5,-1.8,55.6C-13.4,58.7,-26.8,64.2,-35.4,60.3C-43.9,56.3,-47.6,43,-56,31.3C-64.5,19.7,-77.7,9.9,-80,-1.3C-82.2,-12.5,-73.5,-25,-63.1,-33.1C-52.7,-41.3,-40.5,-45.2,-29.7,-47.8C-18.9,-50.3,-9.4,-51.6,2.9,-56.7C15.3,-61.7,30.5,-70.5,38.5,-66.3Z" transform="translate(100 100)"/>
</svg>